HIERARCHY
ROOT root
{
	OFFSET 0.000000 0.000000 0.000000
	CHANNELS 6 Xposition Yposition Zposition Zrotation Yrotation Xrotation
	JOINT lhip
	{
		OFFSET 0.058581 -0.082280 -0.017664
		CHANNELS 3 Zrotation Yrotation Xrotation
		JOINT lknee
		{
			OFFSET 0.043451 -0.386469 0.008037
			CHANNELS 3 Zrotation Yrotation Xrotation
			JOINT lankle
			{
				OFFSET -0.014790 -0.426874 -0.037428
				CHANNELS 3 Zrotation Yrotation Xrotation
				JOINT ltoe
				{
					OFFSET 0.041054 -0.060286 0.122042
					CHANNELS 3 Zrotation Yrotation Xrotation
					End Site
					{
						OFFSET 0.000000 0.000000 0.000000
					}
				}
			}
		}
	}
	JOINT rhip
	{
		OFFSET -0.060310 -0.090513 -0.013543
		CHANNELS 3 Zrotation Yrotation Xrotation
		JOINT rknee
		{
			OFFSET -0.043257 -0.383688 -0.004843
			CHANNELS 3 Zrotation Yrotation Xrotation
			JOINT rankle
			{
				OFFSET 0.019056 -0.420046 -0.034562
				CHANNELS 3 Zrotation Yrotation Xrotation
				JOINT rtoe
				{
					OFFSET -0.034840 -0.062106 0.130323
					CHANNELS 3 Zrotation Yrotation Xrotation
					End Site
					{
						OFFSET 0.000000 0.000000 0.000000
					}
				}
			}
		}
	}
	JOINT lowerback
	{
		OFFSET 0.004439 0.124404 -0.038385
		CHANNELS 3 Zrotation Yrotation Xrotation
		JOINT upperback
		{
			OFFSET 0.004488 0.137956 0.026820
			CHANNELS 3 Zrotation Yrotation Xrotation
			JOINT chest
			{
				OFFSET -0.002265 0.056032 0.002855
				CHANNELS 3 Zrotation Yrotation Xrotation
				JOINT lowerneck
				{
					OFFSET -0.013390 0.211636 -0.033468
					CHANNELS 3 Zrotation Yrotation Xrotation
					JOINT upperneck
					{
						OFFSET 0.010113 0.088937 0.050410
						CHANNELS 3 Zrotation Yrotation Xrotation
						End Site
						{
							OFFSET 0.000000 0.000000 0.000000
						}
					}
				}
				JOINT lclavicle
				{
					OFFSET 0.071702 0.114000 -0.018898
					CHANNELS 3 Zrotation Yrotation Xrotation
					JOINT lshoulder
					{
						OFFSET 0.122921 0.045205 -0.019046
						CHANNELS 3 Zrotation Yrotation Xrotation
						JOINT lelbow
						{
							OFFSET 0.255332 -0.015649 -0.022946
							CHANNELS 3 Zrotation Yrotation Xrotation
							JOINT lwrist
							{
								OFFSET 0.265709 0.012698 -0.007375
								CHANNELS 3 Zrotation Yrotation Xrotation
								End Site
								{
									OFFSET 0.000000 0.000000 0.000000
								}
							}
						}
					}
				}
				JOINT rclavicle
				{
					OFFSET -0.082954 0.112472 -0.023707
					CHANNELS 3 Zrotation Yrotation Xrotation
					JOINT rshoulder
					{
						OFFSET -0.113228 0.046853 -0.008472
						CHANNELS 3 Zrotation Yrotation Xrotation
						JOINT relbow
						{
							OFFSET -0.260127 -0.014369 -0.031269
							CHANNELS 3 Zrotation Yrotation Xrotation
							JOINT rwrist
							{
								OFFSET -0.269108 0.006794 -0.006027
								CHANNELS 3 Zrotation Yrotation Xrotation
								End Site
								{
									OFFSET 0.000000 0.000000 0.000000
								}
							}
						}
					}
				}
			}
		}
	}
}
MOTION
Frames: 17
Frame Time: 0.033333
-0.156260 -1.884598 0.966685 164.184891 1.129127 88.114144 8.372354 0.062527 -11.643703 -5.931199 0.243634 14.281959 -1.703406 6.470595 -14.370207 0.000000 -0.000000 0.000000 -0.694799 -0.625146 5.155258 -0.359576 6.847609 11.339004 0.535662 -2.550624 -26.428437 0.000000 -0.000000 0.000000 0.562266 2.574618 20.107125 1.103187 -1.209769 5.376535 2.028180 -1.485130 2.785797 -1.479341 7.284289 -8.045040 0.691480 2.422985 -6.328389 -24.401809 7.749685 2.479017 -48.959028 5.929070 12.442529 -9.683320 -55.571821 27.305878 -7.080968 -14.921316 -19.569364 20.532284 -1.399025 5.430792 43.503122 -3.041742 14.418002 4.377292 47.738193 18.595673 6.397075 10.293610 -6.490982 
-0.156396 -1.886099 0.966842 164.415309 1.201308 88.097731 8.425414 -0.265008 -11.869109 -5.875882 0.079473 14.465284 -1.669898 6.599636 -14.314314 0.000000 -0.000000 0.000000 -0.552366 -0.659431 4.983756 -0.357563 6.782759 11.557998 0.403541 -2.666950 -26.438316 0.000000 -0.000000 0.000000 0.688065 2.446259 20.411252 1.214897 -1.347455 5.047990 2.024291 -1.463630 2.884041 -1.467460 7.285015 -8.115520 0.671342 2.401803 -6.164183 -24.385742 7.774248 2.367879 -48.926048 5.801842 12.455926 -9.778214 -55.517002 27.121452 -7.356072 -14.894912 -19.193612 20.597535 -1.451249 5.290469 43.282346 -3.057275 14.425549 4.602997 47.695377 18.472315 6.523752 10.255498 -6.115371 
-0.156272 -1.886978 0.966857 164.445079 1.227264 88.046589 8.452104 -0.327540 -11.852188 -5.839168 -0.024120 14.436641 -1.703707 6.656095 -14.270056 0.000000 -0.000000 0.000000 -0.460044 -0.670328 4.850037 -0.367057 6.839132 11.839968 0.359667 -2.746796 -26.469359 0.000000 -0.000000 0.000000 0.734783 2.418965 20.442985 1.274545 -1.379088 5.090802 2.038746 -1.461205 2.912134 -1.436079 7.349478 -8.087240 0.638722 2.394382 -6.149839 -24.322010 7.706425 2.361408 -48.926078 5.701078 12.439039 -9.698564 -55.515063 27.067538 -7.536625 -14.806047 -19.286541 20.633575 -1.448362 5.255639 43.249512 -3.033812 14.434105 4.546585 47.725535 18.377474 6.564263 10.210952 -6.232390 
-0.155978 -1.887907 0.966915 164.514552 1.227233 87.971122 8.470768 -0.372458 -11.756111 -5.824040 -0.151059 14.305334 -1.775920 6.668378 -14.202114 0.000000 -0.000000 0.000000 -0.386936 -0.677444 4.729734 -0.372068 6.832220 12.164196 0.312236 -2.797331 -26.496093 0.000000 -0.000000 0.000000 0.746340 2.365992 20.454801 1.354247 -1.433966 5.177785 2.067120 -1.473335 2.910692 -1.389859 7.434360 -8.091794 0.580899 2.337650 -6.115173 -24.254262 7.591719 2.390088 -48.874755 5.585945 12.398558 -9.543981 -55.519413 26.941256 -7.911070 -14.726488 -19.351730 20.730482 -1.473115 5.221389 43.160783 -3.017729 14.412763 4.440990 47.827049 18.166432 6.711292 10.078908 -6.434196 
-0.155691 -1.888396 0.966971 164.567193 1.196172 87.940940 8.464897 -0.373253 -11.706637 -5.837096 -0.204493 14.212010 -1.807402 6.643772 -14.145764 0.000000 -0.000000 0.000000 -0.378049 -0.652348 4.682611 -0.365522 6.821132 12.302849 0.303002 -2.840282 -26.473703 0.000000 -0.000000 0.000000 0.712802 2.328431 20.421509 1.409308 -1.478718 5.234315 2.084261 -1.482571 2.894702 -1.351728 7.474714 -8.118775 0.534311 2.285132 -6.039315 -24.229571 7.543466 2.429175 -48.805511 5.500436 12.375226 -9.459851 -55.497563 26.888380 -8.141563 -14.741774 -19.400368 20.849715 -1.533832 5.230575 43.062074 -3.015158 14.394530 4.321526 47.830947 18.103743 6.806698 10.151845 -6.338734 
-0.155132 -1.888804 0.967005 164.679842 1.127684 87.913963 8.432066 -0.341766 -11.652385 -5.875344 -0.264698 14.076072 -1.817738 6.598735 -14.036807 0.000000 -0.000000 0.000000 -0.397986 -0.623998 4.712385 -0.351783 6.806236 12.330943 0.263788 -2.916241 -26.426252 0.000000 -0.000000 0.000000 0.631737 2.307833 20.276974 1.506764 -1.578261 5.350432 2.122099 -1.511904 2.881340 -1.330481 7.552151 -8.101853 0.473276 2.232826 -6.000602 -24.215969 7.496818 2.479094 -48.709111 5.380217 12.359286 -9.333219 -55.449456 26.759453 -8.334884 -14.739604 -19.471867 21.052950 -1.648585 5.253237 42.931212 -3.016078 14.360621 4.102526 47.804426 17.933553 6.880471 10.197119 -6.271202 
-0.154518 -1.889083 0.967002 164.817853 1.074900 87.885529 8.408966 -0.317032 -11.588604 -5.896204 -0.358685 13.951283 -1.857287 6.533762 -13.968848 0.000000 -0.000000 0.000000 -0.402918 -0.622310 4.782790 -0.338345 6.793897 12.308660 0.231217 -2.989277 -26.372646 0.000000 -0.000000 0.000000 0.594801 2.295683 20.094931 1.605415 -1.677111 5.443874 2.163495 -1.555029 2.900348 -1.325160 7.628945 -8.070395 0.402133 2.206430 -5.992868 -24.201040 7.471344 2.513891 -48.680525 5.241024 12.327374 -9.155274 -55.395570 26.620331 -8.373330 -14.736900 -19.416726 21.213613 -1.767436 5.253959 42.864508 -3.077447 14.337961 3.874497 47.731193 17.771041 6.885448 10.190918 -6.240186 
-0.153795 -1.889134 0.967058 164.767310 1.003788 87.774059 8.376504 -0.191581 -11.340869 -5.910539 -0.423706 13.758172 -1.872807 6.506712 -13.944664 0.000000 -0.000000 0.000000 -0.442956 -0.588032 4.914505 -0.329816 6.828859 12.327253 0.234162 -2.965364 -26.329562 0.000000 -0.000000 0.000000 0.557718 2.317435 19.945793 1.641643 -1.683764 5.607849 2.189092 -1.528093 2.857449 -1.292622 7.668569 -7.993334 0.355055 2.184670 -6.019504 -24.189779 7.422055 2.559092 -48.680279 5.144120 12.240964 -8.910968 -55.383537 26.424864 -8.359092 -14.724458 -19.245999 21.357608 -1.758116 5.334929 42.873640 -3.265629 14.299237 3.612450 47.656635 17.601464 6.916783 10.202824 -6.177224 
-0.152799 -1.889080 0.967005 164.581956 0.913449 87.677014 8.357204 -0.024478 -11.074002 -5.923638 -0.432326 13.578532 -1.850367 6.500859 -13.958032 0.000000 -0.000000 0.000000 -0.494855 -0.509782 5.022948 -0.324480 6.926934 12.375181 0.233507 -2.914337 -26.288998 0.000000 -0.000000 0.000000 0.473967 2.373766 19.654055 1.651847 -1.636750 5.921606 2.203041 -1.467215 2.776108 -1.267344 7.693073 -7.842023 0.357055 2.204419 -6.167544 -24.170056 7.358892 2.643561 -48.681191 5.082205 12.156679 -8.635493 -55.460517 26.178524 -8.338032 -14.651276 -19.205592 21.462517 -1.696553 5.484516 42.939551 -3.425398 14.272259 3.473737 47.615289 17.587268 7.038980 10.184134 -6.208159 
-0.151592 -1.889592 0.966895 164.459141 0.861543 87.578651 8.379667 -0.012634 -10.924515 -5.891058 -0.505136 13.543780 -1.866870 6.581667 -13.979054 0.000000 -0.000000 0.000000 -0.474111 -0.485276 5.033551 -0.308197 7.001236 12.555736 0.179798 -2.884444 -26.299367 0.000000 -0.000000 0.000000 0.476862 2.366243 19.462101 1.663979 -1.610662 6.058402 2.201354 -1.431883 2.772357 -1.239501 7.695485 -7.752266 0.361584 2.231503 -6.243417 -24.130654 7.292742 2.701291 -48.678628 5.018222 12.123610 -8.478426 -55.563427 26.026874 -8.307715 -14.623644 -19.240104 21.469382 -1.692439 5.539085 43.035425 -3.523849 14.306107 3.625843 47.599945 17.851029 7.160324 10.188829 -6.308588 
-0.150686 -1.890109 0.966871 164.405665 0.827651 87.436890 8.391872 -0.049231 -10.763516 -5.856115 -0.596888 13.537118 -1.882397 6.667209 -13.993666 0.000000 -0.000000 0.000000 -0.462780 -0.457213 5.111336 -0.260204 7.038722 12.699307 0.158896 -2.880989 -26.286226 0.000000 -0.000000 0.000000 0.526501 2.329455 19.400285 1.665313 -1.634369 6.180629 2.175892 -1.397269 2.769058 -1.217899 7.713095 -7.734529 0.367021 2.237376 -6.237079 -24.072698 7.194710 2.745749 -48.726752 4.971162 12.103815 -8.421932 -55.619106 25.961612 -8.302322 -14.615398 -19.245692 21.451517 -1.649004 5.565445 43.115766 -3.570984 14.320465 3.731854 47.669313 18.019722 7.234498 10.199596 -6.376491 
-0.149611 -1.890613 0.966794 164.331730 0.809744 87.341967 8.444494 -0.068320 -10.632855 -5.835248 -0.643938 13.505798 -1.892208 6.735937 -14.012627 0.000000 -0.000000 0.000000 -0.402070 -0.307746 5.165002 -0.218309 7.055577 12.820208 0.117464 -2.949008 -26.226657 0.000000 -0.000000 0.000000 0.531847 2.322889 19.174183 1.721166 -1.574703 6.420342 2.196732 -1.451902 2.825851 -1.247495 7.734754 -7.746263 0.313967 2.248854 -6.256349 -24.052923 7.086852 2.807243 -48.866048 4.873703 12.095146 -8.229784 -55.624537 25.833787 -8.342219 -14.569532 -19.253389 21.405236 -1.620011 5.543417 43.170837 -3.533177 14.328219 3.742880 47.766267 18.105700 7.263363 10.224779 -6.497426 
-0.148612 -1.891182 0.966805 164.281834 0.778907 87.243656 8.457296 -0.066333 -10.520768 -5.795311 -0.735162 13.498937 -1.922395 6.806479 -14.023638 0.000000 -0.000000 0.000000 -0.355885 -0.244224 5.190976 -0.190415 7.091639 12.961901 0.118280 -3.005013 -26.222418 0.000000 -0.000000 0.000000 0.573850 2.261963 19.151635 1.756874 -1.534860 6.480868 2.223127 -1.613044 2.931253 -1.395751 7.744501 -8.038899 0.226260 2.264234 -6.130713 -24.164265 7.205912 2.648325 -48.919371 4.874842 12.041449 -8.279661 -55.626780 25.898314 -8.227253 -14.561801 -19.289334 21.312185 -1.635524 5.404032 43.202975 -3.382100 14.346722 3.802027 47.842605 18.135329 7.145074 10.234068 -6.493161 
-0.147441 -1.891639 0.966862 164.284177 0.729466 87.172425 8.458751 -0.045201 -10.453964 -5.781645 -0.831077 13.525760 -1.911530 6.841562 -14.085981 0.000000 -0.000000 0.000000 -0.309850 -0.144451 5.259421 -0.174145 7.125459 13.037207 0.175136 -3.093286 -26.172123 0.000000 -0.000000 0.000000 0.577547 2.133493 19.177243 1.792380 -1.549190 6.469306 2.245041 -1.747961 3.013395 -1.595029 7.759835 -8.392853 0.175624 2.289230 -5.969720 -24.324325 7.462270 2.415301 -48.916033 4.944711 11.958615 -8.560363 -55.646613 26.099586 -7.974004 -14.562624 -19.297070 21.237962 -1.700903 5.282665 43.200201 -3.225188 14.349464 3.847409 47.949321 18.108870 6.968679 10.220436 -6.448467 
-0.146290 -1.891920 0.966892 164.340691 0.688473 87.087435 8.444078 -0.036977 -10.362359 -5.742991 -0.974409 13.529874 -1.942515 6.877835 -14.134271 0.000000 -0.000000 0.000000 -0.245150 -0.023877 5.385523 -0.181915 7.115207 13.058347 0.200199 -3.173021 -26.144797 0.000000 -0.000000 0.000000 0.624505 1.940558 19.362505 1.771476 -1.590658 6.287811 2.235935 -1.818011 3.050508 -1.756906 7.782096 -8.632336 0.164514 2.354830 -5.853841 -24.478228 7.704370 2.222123 -48.845169 5.091063 11.900851 -8.973682 -55.670133 26.412645 -7.521051 -14.630556 -19.187319 21.210216 -1.761025 5.226924 43.167835 -3.155362 14.326644 3.910839 47.967734 18.064619 6.654593 10.244534 -6.406093 
-0.145261 -1.892205 0.966908 164.455849 0.648199 87.032493 8.412450 -0.099236 -10.329884 -5.687621 -1.138790 13.569523 -1.953812 6.924405 -14.198951 0.000000 -0.000000 0.000000 -0.208480 0.005738 5.492588 -0.169271 7.080621 13.046804 0.214864 -3.216634 -26.124319 0.000000 -0.000000 0.000000 0.704667 1.785082 19.571609 1.710469 -1.685183 6.001574 2.194101 -1.790833 3.071314 -1.786122 7.763243 -8.630517 0.193437 2.441084 -5.791017 -24.526770 7.805240 2.199417 -48.855731 5.202088 11.886541 -9.185581 -55.684144 26.575122 -7.118866 -14.698196 -18.996387 21.255773 -1.797611 5.255507 43.109782 -3.204394 14.277817 3.908240 47.870980 17.992666 6.492126 10.240181 -6.330462 
-0.144197 -1.892699 0.966683 164.506291 0.616794 87.124290 8.449975 -0.136785 -10.511205 -5.686400 -1.182621 13.719976 -1.909377 6.916956 -14.317923 0.000000 -0.000000 0.000000 -0.200257 -0.130368 5.313708 -0.121011 7.076792 13.213509 0.214695 -3.158675 -26.147182 0.000000 -0.000000 0.000000 0.738651 1.802464 19.499499 1.709912 -1.694092 5.945040 2.188752 -1.813030 3.097770 -1.798010 7.719453 -8.647505 0.153160 2.513817 -5.784753 -24.570674 7.822028 2.250387 -48.974209 5.196498 11.876547 -9.127504 -55.710239 26.492324 -6.949633 -14.720641 -18.873062 21.270253 -1.855446 5.289274 43.055989 -3.213606 14.205834 3.880030 47.737691 18.004369 6.607400 10.213805 -6.233126 
